<?xml version="1.0" standalone="no"?>
<!DOCTYPE svg PUBLIC "-//W3C//DTD SVG 20010904//EN"
 "http://www.w3.org/TR/2001/REC-SVG-20010904/DTD/svg10.dtd">
<svg version="1.0" xmlns="http://www.w3.org/2000/svg"
 width="500.000000pt" height="500.000000pt" viewBox="0 0 500.000000 500.000000"
 preserveAspectRatio="xMidYMid meet">

<g transform="translate(0.000000,500.000000) scale(0.100000,-0.100000)"
fill="#000000" stroke="none">
<path d="M2480 3623 c-37 -14 -577 -330 -597 -350 -23 -22 -23 -22 -23 -371 0
-319 2 -352 18 -370 9 -10 139 -89 287 -174 343 -197 329 -190 357 -179 36 14
549 310 586 337 l32 25 0 160 c0 87 -3 159 -7 159 -5 0 -32 -14 -60 -30 l-53
-30 0 -91 c0 -80 -2 -92 -22 -112 -40 -39 -469 -280 -498 -279 -14 0 -132 62
-262 137 -204 117 -238 140 -247 167 -12 34 -14 516 -2 558 5 20 57 54 246
163 136 79 250 139 266 139 32 1 481 -253 504 -285 11 -16 15 -51 15 -144 0
-78 4 -123 10 -123 6 0 33 11 60 25 l50 25 0 138 c0 96 -4 143 -12 154 -22 26
-617 363 -631 357 -1 0 -9 -3 -17 -6z"/>
<path d="M2305 3270 c-93 -55 -174 -106 -180 -114 -15 -23 10 -42 188 -145
101 -58 169 -91 188 -91 18 0 78 28 158 75 71 41 132 75 135 75 4 0 5 -77 4
-171 l-3 -171 -130 -74 c-71 -41 -140 -77 -153 -81 -17 -4 -59 16 -160 73
l-137 79 -5 115 -5 115 -54 32 c-30 18 -58 30 -62 27 -5 -3 -9 -81 -9 -173 0
-149 2 -170 18 -184 35 -31 385 -227 406 -227 12 1 109 52 216 114 l195 113 3
240 c2 185 -1 243 -10 250 -7 6 -36 23 -64 38 l-50 28 -131 -77 c-76 -44 -143
-76 -158 -76 -31 0 -142 58 -150 78 -6 17 112 92 145 92 14 -1 36 -7 49 -14
22 -12 29 -10 77 18 30 17 54 34 54 38 0 13 -157 98 -181 97 -13 0 -100 -45
-194 -99z"/>
<path d="M1530 1641 l0 -181 30 0 30 0 0 75 0 75 119 0 c105 0 121 2 145 21
23 18 26 27 26 83 0 97 -7 100 -196 104 l-154 3 0 -180z m290 74 l0 -35 -115
0 -115 0 0 35 0 35 115 0 115 0 0 -35z"/>
<path d="M2004 1808 c-35 -16 -44 -52 -44 -168 0 -170 10 -180 180 -180 170 0
180 10 180 181 0 121 -12 162 -52 173 -37 10 -241 6 -264 -6z m246 -168 l0
-110 -110 0 -110 0 0 110 0 110 110 0 110 0 0 -110z"/>
<path d="M2400 1641 l0 -181 30 0 30 0 0 75 0 75 28 0 c21 0 43 -17 97 -75 68
-73 72 -75 118 -75 l47 0 0 35 c0 34 -1 35 -39 35 -34 0 -44 6 -71 40 l-32 40
47 0 c67 0 95 30 95 103 0 39 -6 62 -19 78 -18 23 -25 24 -175 27 l-156 3 0
-180z m290 74 l0 -35 -115 0 -115 0 0 35 0 35 115 0 115 0 0 -35z"/>
<path d="M2830 1785 l0 -35 70 0 70 0 0 -145 0 -145 35 0 35 0 0 145 0 145 70
0 70 0 0 35 0 35 -175 0 -175 0 0 -35z"/>
<path d="M3260 1785 l0 -35 75 0 75 0 0 -110 0 -110 -75 0 -75 0 0 -35 0 -35
175 0 175 0 0 35 0 35 -70 0 -70 0 0 110 0 110 70 0 70 0 0 35 0 35 -175 0
-175 0 0 -35z"/>
<path d="M1390 1495 c0 -32 2 -35 30 -35 28 0 30 3 30 35 0 32 -2 35 -30 35
-28 0 -30 -3 -30 -35z"/>
</g>
</svg>
